<?xml version="1.0" encoding="UTF-8" standalone="no"?>
<!DOCTYPE svg PUBLIC "-//W3C//DTD SVG 1.1//EN"
 "http://www.w3.org/Graphics/SVG/1.1/DTD/svg11.dtd">
<!-- Generated by graphviz version 2.47.3 (20210619.1520)
 -->
<!-- Pages: 1 -->
<svg width="718pt" height="154pt"
 viewBox="0.00 0.00 718.00 153.50" xmlns="http://www.w3.org/2000/svg" xmlns:xlink="http://www.w3.org/1999/xlink">
<g id="graph0" class="graph" transform="scale(1 1) rotate(0) translate(36 117.5)">
<polygon fill="white" stroke="transparent" points="-36,36 -36,-117.5 682,-117.5 682,36 -36,36"/>
<!-- Range_0 -->
<g id="node1" class="node">
<title>Range_0</title>
<polygon fill="lightgray" stroke="transparent" points="9.5,-39 9.5,-58 62.5,-58 62.5,-39 9.5,-39"/>
<text text-anchor="start" x="11.5" y="-45.8" font-family="Times,serif" font-style="italic" font-size="14.00">Range_0</text>
<text text-anchor="start" x="30.5" y="-25.8" font-family="Times,serif" font-size="14.00">id</text>
<polygon fill="none" stroke="lightgray" points="8,-19 8,-59 63,-59 63,-19 8,-19"/>
</g>
<!-- transform_alpha -->
<g id="node2" class="node">
<title>transform_alpha</title>
<polygon fill="black" stroke="transparent" points="154.5,-53 154.5,-74 251.5,-74 251.5,-53 154.5,-53"/>
<polygon fill="none" stroke="black" points="154.5,-53 154.5,-74 251.5,-74 251.5,-53 154.5,-53"/>
<text text-anchor="start" x="157.5" y="-60.8" font-family="Times,serif" font-style="italic" font-size="14.00" fill="white">transform_alpha</text>
<polygon fill="none" stroke="black" points="154.5,-30 154.5,-51 251.5,-51 251.5,-30 154.5,-30"/>
<text text-anchor="start" x="193" y="-36.8" font-family="Times,serif" font-size="14.00">key</text>
<polygon fill="none" stroke="black" points="154.5,-7 154.5,-28 251.5,-28 251.5,-7 154.5,-7"/>
<text text-anchor="start" x="188" y="-13.8" font-family="Times,serif" font-size="14.00">value</text>
<polygon fill="none" stroke="black" points="151,-4.5 151,-77.5 254,-77.5 254,-4.5 151,-4.5"/>
</g>
<!-- Range_0&#45;&gt;transform_alpha -->
<g id="edge1" class="edge">
<title>Range_0:0&#45;&gt;transform_alpha:0</title>
<path fill="none" stroke="black" d="M63.5,-29C100.18,-29 111.26,-38.11 143.34,-39.75"/>
<polygon fill="black" stroke="black" points="143.42,-43.25 153.5,-40 143.59,-36.25 143.42,-43.25"/>
</g>
<!-- Range_0&#45;&gt;transform_alpha -->
<g id="edge2" class="edge">
<title>Range_0:0&#45;&gt;transform_alpha:1</title>
<path fill="none" stroke="black" d="M63.5,-29C100.23,-29 111.23,-19.06 143.33,-17.27"/>
<polygon fill="black" stroke="black" points="143.6,-20.77 153.5,-17 143.41,-13.77 143.6,-20.77"/>
</g>
<!-- transform_beta -->
<g id="node3" class="node">
<title>transform_beta</title>
<polygon fill="black" stroke="transparent" points="345,-53 345,-74 435,-74 435,-53 345,-53"/>
<polygon fill="none" stroke="black" points="345,-53 345,-74 435,-74 435,-53 345,-53"/>
<text text-anchor="start" x="348" y="-60.8" font-family="Times,serif" font-style="italic" font-size="14.00" fill="white">transform_beta</text>
<polygon fill="none" stroke="black" points="345,-30 345,-51 435,-51 435,-30 345,-30"/>
<text text-anchor="start" x="380" y="-36.8" font-family="Times,serif" font-size="14.00">key</text>
<polygon fill="none" stroke="black" points="345,-7 345,-28 435,-28 435,-7 345,-7"/>
<text text-anchor="start" x="375" y="-13.8" font-family="Times,serif" font-size="14.00">value</text>
<polygon fill="none" stroke="black" points="342,-4.5 342,-77.5 438,-77.5 438,-4.5 342,-4.5"/>
</g>
<!-- transform_alpha&#45;&gt;transform_beta -->
<g id="edge3" class="edge">
<title>transform_alpha:0&#45;&gt;transform_beta:0</title>
<path fill="none" stroke="black" d="M252.5,-40C289.51,-40 301.26,-40 333.73,-40"/>
<polygon fill="black" stroke="black" points="334,-43.5 344,-40 334,-36.5 334,-43.5"/>
</g>
<!-- transform_alpha&#45;&gt;transform_beta -->
<g id="edge4" class="edge">
<title>transform_alpha:1&#45;&gt;transform_beta:1</title>
<path fill="none" stroke="black" d="M252.5,-17C289.51,-17 301.26,-17 333.73,-17"/>
<polygon fill="black" stroke="black" points="334,-20.5 344,-17 334,-13.5 334,-20.5"/>
</g>
<!-- transform_gamma -->
<g id="node4" class="node">
<title>transform_gamma</title>
<polygon fill="black" stroke="transparent" points="529,-30 529,-51 635,-51 635,-30 529,-30"/>
<polygon fill="none" stroke="black" points="529,-30 529,-51 635,-51 635,-30 529,-30"/>
<text text-anchor="start" x="532" y="-37.8" font-family="Times,serif" font-style="italic" font-size="14.00" fill="white">transform_gamma</text>
<polygon fill="none" stroke="black" points="529,-7 529,-28 635,-28 635,-7 529,-7"/>
<text text-anchor="start" x="573.5" y="-13.8" font-family="Times,serif" font-size="14.00">col</text>
<polygon fill="none" stroke="black" points="526,-4 526,-54 638,-54 638,-4 526,-4"/>
</g>
<!-- transform_beta&#45;&gt;transform_gamma -->
<g id="edge5" class="edge">
<title>transform_beta:1&#45;&gt;transform_gamma:0</title>
<path fill="none" stroke="black" d="M436,-17C473.22,-17 485.03,-17 517.68,-17"/>
<polygon fill="black" stroke="black" points="518,-20.5 528,-17 518,-13.5 518,-20.5"/>
</g>
</g>
</svg>
