<?xml version="1.0" encoding="UTF-8" standalone="no"?>
<!DOCTYPE svg PUBLIC "-//W3C//DTD SVG 1.1//EN"
 "http://www.w3.org/Graphics/SVG/1.1/DTD/svg11.dtd">
<!-- Generated by graphviz version 2.47.3 (20210619.1520)
 -->
<!-- Pages: 1 -->
<svg width="1010pt" height="132pt"
 viewBox="0.00 0.00 1010.00 131.50" xmlns="http://www.w3.org/2000/svg" xmlns:xlink="http://www.w3.org/1999/xlink">
<g id="graph0" class="graph" transform="scale(1 1) rotate(0) translate(36 95.5)">
<polygon fill="white" stroke="transparent" points="-36,36 -36,-95.5 974,-95.5 974,36 -36,36"/>
<!-- Range_0 -->
<g id="node1" class="node">
<title>Range_0</title>
<polygon fill="lightpink" stroke="transparent" points="1.5,-30 1.5,-49 54.5,-49 54.5,-30 1.5,-30"/>
<text text-anchor="start" x="3.5" y="-36.8" font-family="Times,serif" font-style="italic" font-size="14.00">Range_0</text>
<text text-anchor="start" x="22.5" y="-16.8" font-family="Times,serif" font-size="14.00">id</text>
<polygon fill="none" stroke="black" points="0,-10 0,-50 55,-50 55,-10 0,-10"/>
</g>
<!-- transform_alpha_2d7b9e9 -->
<g id="node2" class="node">
<title>transform_alpha_2d7b9e9</title>
<polygon fill="lightyellow" stroke="transparent" points="200.5,-39 200.5,-58 349.5,-58 349.5,-39 200.5,-39"/>
<text text-anchor="start" x="202.5" y="-45.8" font-family="Times,serif" font-style="italic" font-size="14.00">transform_alpha_2d7b9e9</text>
<text text-anchor="start" x="265" y="-25.8" font-family="Times,serif" font-size="14.00">key</text>
<text text-anchor="start" x="260" y="-6.8" font-family="Times,serif" font-size="14.00">value</text>
<polygon fill="none" stroke="black" points="199,-0.5 199,-59.5 350,-59.5 350,-0.5 199,-0.5"/>
</g>
<!-- Range_0&#45;&gt;transform_alpha_2d7b9e9 -->
<g id="edge1" class="edge">
<title>Range_0:0&#45;&gt;transform_alpha_2d7b9e9:0</title>
<path fill="none" stroke="black" d="M55,-20C115.83,-20 133.28,-28.04 189.36,-28.92"/>
<polygon fill="black" stroke="black" points="189.47,-32.42 199.5,-29 189.53,-25.42 189.47,-32.42"/>
</g>
<!-- Range_0&#45;&gt;transform_alpha_2d7b9e9 -->
<g id="edge2" class="edge">
<title>Range_0:0&#45;&gt;transform_alpha_2d7b9e9:1</title>
<path fill="none" stroke="black" d="M55,-20C115.86,-20 133.26,-11.06 189.36,-10.09"/>
<polygon fill="black" stroke="black" points="189.53,-13.59 199.5,-10 189.47,-6.59 189.53,-13.59"/>
</g>
<!-- transform_beta_0b26c4d -->
<g id="node3" class="node">
<title>transform_beta_0b26c4d</title>
<polygon fill="lightyellow" stroke="transparent" points="495.5,-39 495.5,-58 636.5,-58 636.5,-39 495.5,-39"/>
<text text-anchor="start" x="497.5" y="-45.8" font-family="Times,serif" font-style="italic" font-size="14.00">transform_beta_0b26c4d</text>
<text text-anchor="start" x="556" y="-25.8" font-family="Times,serif" font-size="14.00">key</text>
<text text-anchor="start" x="551" y="-6.8" font-family="Times,serif" font-size="14.00">value</text>
<polygon fill="none" stroke="black" points="494,-0.5 494,-59.5 637,-59.5 637,-0.5 494,-0.5"/>
</g>
<!-- transform_alpha_2d7b9e9&#45;&gt;transform_beta_0b26c4d -->
<g id="edge3" class="edge">
<title>transform_alpha_2d7b9e9:0&#45;&gt;transform_beta_0b26c4d:0</title>
<path fill="none" stroke="black" d="M350,-29C410.71,-29 428.38,-29 484.38,-29"/>
<polygon fill="black" stroke="black" points="484.5,-32.5 494.5,-29 484.5,-25.5 484.5,-32.5"/>
</g>
<!-- transform_alpha_2d7b9e9&#45;&gt;transform_beta_0b26c4d -->
<g id="edge4" class="edge">
<title>transform_alpha_2d7b9e9:1&#45;&gt;transform_beta_0b26c4d:1</title>
<path fill="none" stroke="black" d="M350,-10C410.71,-10 428.38,-10 484.38,-10"/>
<polygon fill="black" stroke="black" points="484.5,-13.5 494.5,-10 484.5,-6.5 484.5,-13.5"/>
</g>
<!-- transform_gamma_0665fda -->
<g id="node4" class="node">
<title>transform_gamma_0665fda</title>
<polygon fill="lightyellow" stroke="transparent" points="782.5,-20 782.5,-39 937.5,-39 937.5,-20 782.5,-20"/>
<text text-anchor="start" x="784.5" y="-26.8" font-family="Times,serif" font-style="italic" font-size="14.00">transform_gamma_0665fda</text>
<text text-anchor="start" x="851.5" y="-6.8" font-family="Times,serif" font-size="14.00">col</text>
<polygon fill="none" stroke="black" points="781,0 781,-40 938,-40 938,0 781,0"/>
</g>
<!-- transform_beta_0b26c4d&#45;&gt;transform_gamma_0665fda -->
<g id="edge5" class="edge">
<title>transform_beta_0b26c4d:1&#45;&gt;transform_gamma_0665fda:0</title>
<path fill="none" stroke="black" d="M637,-10C697.71,-10 715.38,-10 771.38,-10"/>
<polygon fill="black" stroke="black" points="771.5,-13.5 781.5,-10 771.5,-6.5 771.5,-13.5"/>
</g>
</g>
</svg>
