<?xml version="1.0" encoding="UTF-8" standalone="no"?><!DOCTYPE svg PUBLIC "-//W3C//DTD SVG 1.1//EN" "http://www.w3.org/Graphics/SVG/1.1/DTD/svg11.dtd"><!-- Generated by graphviz version 2.40.1 (20161225.0304)
 --><!-- Title: %0 Pages: 1 --><svg xmlns="http://www.w3.org/2000/svg" xmlns:xlink="http://www.w3.org/1999/xlink" width="1443pt" height="267pt" viewBox="0.00 0.00 1443.00 267.00">
<g id="graph0" class="graph" transform="scale(1 1) rotate(0) translate(36 231)">
<title>%0</title>
<polygon fill="#ffffff" stroke="transparent" points="-36,36 -36,-231 1407,-231 1407,36 -36,36"/>
<!-- Project_13 -->
<g id="node1" class="node">
<title>Project_13</title>
<polygon fill="#d3d3d3" stroke="transparent" points="1103,-114 1103,-134 1167,-134 1167,-114 1103,-114"/>
<text text-anchor="start" x="1104.6732" y="-120.4" font-family="Times,serif" font-style="italic" font-size="14.00" fill="#000000">Project_13</text>
<text text-anchor="start" x="1124.8927" y="-99.4" font-family="Times,serif" font-size="14.00" fill="#000000">key</text>
<text text-anchor="start" x="1119.8401" y="-79.4" font-family="Times,serif" font-size="14.00" fill="#000000">value</text>
<text text-anchor="start" x="1132.2777" y="-59.4" font-family="Times,serif" font-size="14.00" fill="#000000">s</text>
<polygon fill="none" stroke="#000000" points="1102,-53 1102,-135 1168,-135 1168,-53 1102,-53"/>
</g>
<!-- testview2 -->
<g id="node7" class="node">
<title>testview2</title>
<polygon fill="#ffffe0" stroke="transparent" points="1313.5,-114 1313.5,-134 1370.5,-134 1370.5,-114 1313.5,-114"/>
<text text-anchor="start" x="1315.1739" y="-120.4" font-family="Times,serif" font-style="italic" font-size="14.00" fill="#000000">testview2</text>
<text text-anchor="start" x="1331.8927" y="-99.4" font-family="Times,serif" font-size="14.00" fill="#000000">key</text>
<text text-anchor="start" x="1326.8401" y="-79.4" font-family="Times,serif" font-size="14.00" fill="#000000">value</text>
<text text-anchor="start" x="1339.2777" y="-59.4" font-family="Times,serif" font-size="14.00" fill="#000000">s</text>
<polygon fill="none" stroke="#000000" points="1312,-53 1312,-135 1371,-135 1371,-53 1312,-53"/>
</g>
<!-- Project_13&#45;&gt;testview2 -->
<g id="edge12" class="edge">
<title>Project_13:0-&gt;testview2:0</title>
<path fill="none" stroke="#000000" d="M1167,-104C1228.5503,-104 1246.4625,-104 1303.2399,-104"/>
<polygon fill="#000000" stroke="#000000" points="1303.5,-107.5001 1313.5,-104 1303.5,-100.5001 1303.5,-107.5001"/>
</g>
<!-- Project_13&#45;&gt;testview2 -->
<g id="edge13" class="edge">
<title>Project_13:1-&gt;testview2:1</title>
<path fill="none" stroke="#000000" d="M1167,-84C1228.5503,-84 1246.4625,-84 1303.2399,-84"/>
<polygon fill="#000000" stroke="#000000" points="1303.5,-87.5001 1313.5,-84 1303.5,-80.5001 1303.5,-87.5001"/>
</g>
<!-- Project_13&#45;&gt;testview2 -->
<g id="edge14" class="edge">
<title>Project_13:2-&gt;testview2:2</title>
<path fill="none" stroke="#000000" d="M1167,-64C1228.5503,-64 1246.4625,-64 1303.2399,-64"/>
<polygon fill="#000000" stroke="#000000" points="1303.5,-67.5001 1313.5,-64 1303.5,-60.5001 1303.5,-67.5001"/>
</g>
<!-- Join_Inner_20 -->
<g id="node2" class="node">
<title>Join_Inner_20</title>
<polygon fill="#d3d3d3" stroke="transparent" points="873,-114 873,-134 957,-134 957,-114 873,-114"/>
<text text-anchor="start" x="874.5645" y="-120.4" font-family="Times,serif" font-style="italic" font-size="14.00" fill="#000000">Join_Inner_20</text>
<text text-anchor="start" x="904.8927" y="-99.4" font-family="Times,serif" font-size="14.00" fill="#000000">key</text>
<text text-anchor="start" x="899.8401" y="-79.4" font-family="Times,serif" font-size="14.00" fill="#000000">value</text>
<text text-anchor="start" x="904.8927" y="-59.4" font-family="Times,serif" font-size="14.00" fill="#000000">key</text>
<text text-anchor="start" x="912.2777" y="-39.4" font-family="Times,serif" font-size="14.00" fill="#000000">s</text>
<polygon fill="none" stroke="#000000" points="872,-33 872,-135 958,-135 958,-33 872,-33"/>
</g>
<!-- Join_Inner_20&#45;&gt;Project_13 -->
<g id="edge1" class="edge">
<title>Join_Inner_20:0-&gt;Project_13:0</title>
<path fill="none" stroke="#000000" d="M957,-104C1018.3403,-104 1036.1913,-104 1092.7749,-104"/>
<polygon fill="#000000" stroke="#000000" points="1093,-107.5001 1103,-104 1093,-100.5001 1093,-107.5001"/>
</g>
<!-- Join_Inner_20&#45;&gt;Project_13 -->
<g id="edge2" class="edge">
<title>Join_Inner_20:1-&gt;Project_13:1</title>
<path fill="none" stroke="#000000" d="M957,-84C1018.3403,-84 1036.1913,-84 1092.7749,-84"/>
<polygon fill="#000000" stroke="#000000" points="1093,-87.5001 1103,-84 1093,-80.5001 1093,-87.5001"/>
</g>
<!-- Join_Inner_20&#45;&gt;Project_13 -->
<g id="edge3" class="edge">
<title>Join_Inner_20:3-&gt;Project_13:2</title>
<path fill="none" stroke="#000000" d="M957,-44C1018.9131,-44 1035.7124,-61.8723 1092.6912,-63.8271"/>
<polygon fill="#000000" stroke="#000000" points="1092.9427,-67.3317 1103,-64 1093.0601,-60.3327 1092.9427,-67.3317"/>
</g>
<!-- Filter_22 -->
<g id="node3" class="node">
<title>Filter_22</title>
<polygon fill="#d3d3d3" stroke="transparent" points="470.5,-174 470.5,-194 525.5,-194 525.5,-174 470.5,-174"/>
<text text-anchor="start" x="472.3352" y="-180.4" font-family="Times,serif" font-style="italic" font-size="14.00" fill="#000000">Filter_22</text>
<text text-anchor="start" x="487.8927" y="-159.4" font-family="Times,serif" font-size="14.00" fill="#000000">key</text>
<text text-anchor="start" x="482.8401" y="-139.4" font-family="Times,serif" font-size="14.00" fill="#000000">value</text>
<polygon fill="none" stroke="#000000" points="469,-133 469,-195 526,-195 526,-133 469,-133"/>
</g>
<!-- Filter_22&#45;&gt;Join_Inner_20 -->
<g id="edge4" class="edge">
<title>Filter_22:0-&gt;Join_Inner_20:0</title>
<path fill="none" stroke="#000000" d="M525.5,-164C615.8953,-164 639.1399,-161.5887 728,-145 790.3621,-133.358 804.5935,-106.9823 862.846,-104.2329"/>
<polygon fill="#000000" stroke="#000000" points="863.0829,-107.7285 873,-104 862.9223,-100.7303 863.0829,-107.7285"/>
</g>
<!-- Filter_22&#45;&gt;Join_Inner_20 -->
<g id="edge5" class="edge">
<title>Filter_22:1-&gt;Join_Inner_20:1</title>
<path fill="none" stroke="#000000" d="M525.5,-144C678.7094,-144 714.6792,-86.665 862.622,-84.0894"/>
<polygon fill="#000000" stroke="#000000" points="863.0306,-87.5862 873,-84 862.9702,-80.5864 863.0306,-87.5862"/>
</g>
<!-- default.testtable -->
<g id="node4" class="node">
<title>default.testtable</title>
<polygon fill="#ffb6c1" stroke="transparent" points="1.5,-94 1.5,-114 94.5,-114 94.5,-94 1.5,-94"/>
<text text-anchor="start" x="3.4891" y="-100.4" font-family="Times,serif" font-style="italic" font-size="14.00" fill="#000000">default.testtable</text>
<text text-anchor="start" x="37.8927" y="-79.4" font-family="Times,serif" font-size="14.00" fill="#000000">key</text>
<text text-anchor="start" x="32.8401" y="-59.4" font-family="Times,serif" font-size="14.00" fill="#000000">value</text>
<polygon fill="none" stroke="#000000" points="0,-53 0,-115 95,-115 95,-53 0,-53"/>
</g>
<!-- default.testtable&#45;&gt;Filter_22 -->
<g id="edge8" class="edge">
<title>default.testtable:0-&gt;Filter_22:0</title>
<path fill="none" stroke="#000000" d="M94.5,-84C164.2102,-84 171.299,-128.3843 239,-145 335.9305,-168.7894 365.3258,-164.339 460.4603,-164.0172"/>
<polygon fill="#000000" stroke="#000000" points="460.5061,-167.5173 470.5,-164 460.494,-160.5173 460.5061,-167.5173"/>
</g>
<!-- default.testtable&#45;&gt;Filter_22 -->
<g id="edge9" class="edge">
<title>default.testtable:1-&gt;Filter_22:1</title>
<path fill="none" stroke="#000000" d="M94.5,-64C261.848,-64 298.1841,-140.7524 460.1586,-143.9004"/>
<polygon fill="#000000" stroke="#000000" points="460.4667,-147.4035 470.5,-144 460.5342,-140.4038 460.4667,-147.4035"/>
</g>
<!-- Aggregate_28 -->
<g id="node8" class="node">
<title>Aggregate_28</title>
<polygon fill="#d3d3d3" stroke="transparent" points="240.5,-41 240.5,-61 323.5,-61 323.5,-41 240.5,-41"/>
<text text-anchor="start" x="242.3492" y="-47.4" font-family="Times,serif" font-style="italic" font-size="14.00" fill="#000000">Aggregate_28</text>
<text text-anchor="start" x="271.8927" y="-26.4" font-family="Times,serif" font-size="14.00" fill="#000000">key</text>
<text text-anchor="start" x="279.2777" y="-6.4" font-family="Times,serif" font-size="14.00" fill="#000000">s</text>
<polygon fill="none" stroke="#000000" points="239,0 239,-62 324,-62 324,0 239,0"/>
</g>
<!-- default.testtable&#45;&gt;Aggregate_28 -->
<g id="edge15" class="edge">
<title>default.testtable:0-&gt;Aggregate_28:0</title>
<path fill="none" stroke="#000000" d="M94.5,-84C160.0266,-84 170.5044,-36.2461 230.44,-31.3961"/>
<polygon fill="#000000" stroke="#000000" points="230.6455,-34.8909 240.5,-31 230.37,-27.8963 230.6455,-34.8909"/>
</g>
<!-- default.testtable&#45;&gt;Aggregate_28 -->
<g id="edge16" class="edge">
<title>default.testtable:1-&gt;Aggregate_28:1</title>
<path fill="none" stroke="#000000" d="M94.5,-64C160.0266,-64 170.5044,-16.2461 230.44,-11.3961"/>
<polygon fill="#000000" stroke="#000000" points="230.6455,-14.8909 240.5,-11 230.37,-7.8963 230.6455,-14.8909"/>
</g>
<!-- Filter_25 -->
<g id="node5" class="node">
<title>Filter_25</title>
<polygon fill="#d3d3d3" stroke="transparent" points="672.5,-41 672.5,-61 727.5,-61 727.5,-41 672.5,-41"/>
<text text-anchor="start" x="674.3352" y="-47.4" font-family="Times,serif" font-style="italic" font-size="14.00" fill="#000000">Filter_25</text>
<text text-anchor="start" x="689.8927" y="-26.4" font-family="Times,serif" font-size="14.00" fill="#000000">key</text>
<text text-anchor="start" x="697.2777" y="-6.4" font-family="Times,serif" font-size="14.00" fill="#000000">s</text>
<polygon fill="none" stroke="#000000" points="671,0 671,-62 728,-62 728,0 671,0"/>
</g>
<!-- Filter_25&#45;&gt;Join_Inner_20 -->
<g id="edge6" class="edge">
<title>Filter_25:0-&gt;Join_Inner_20:2</title>
<path fill="none" stroke="#000000" d="M727.5,-31C790.3123,-31 805.1837,-60.6113 862.9398,-63.7344"/>
<polygon fill="#000000" stroke="#000000" points="862.9111,-67.2347 873,-64 863.0959,-60.2372 862.9111,-67.2347"/>
</g>
<!-- Filter_25&#45;&gt;Join_Inner_20 -->
<g id="edge7" class="edge">
<title>Filter_25:1-&gt;Join_Inner_20:3</title>
<path fill="none" stroke="#000000" d="M727.5,-11C790.3123,-11 805.1837,-40.6113 862.9398,-43.7344"/>
<polygon fill="#000000" stroke="#000000" points="862.9111,-47.2347 873,-44 863.0959,-40.2372 862.9111,-47.2347"/>
</g>
<!-- testview1 -->
<g id="node6" class="node">
<title>testview1</title>
<polygon fill="#ffffe0" stroke="transparent" points="469.5,-41 469.5,-61 526.5,-61 526.5,-41 469.5,-41"/>
<text text-anchor="start" x="471.1739" y="-47.4" font-family="Times,serif" font-style="italic" font-size="14.00" fill="#000000">testview1</text>
<text text-anchor="start" x="487.8927" y="-26.4" font-family="Times,serif" font-size="14.00" fill="#000000">key</text>
<text text-anchor="start" x="495.2777" y="-6.4" font-family="Times,serif" font-size="14.00" fill="#000000">s</text>
<polygon fill="none" stroke="#000000" points="468,0 468,-62 527,-62 527,0 468,0"/>
</g>
<!-- testview1&#45;&gt;Filter_25 -->
<g id="edge10" class="edge">
<title>testview1:0-&gt;Filter_25:0</title>
<path fill="none" stroke="#000000" d="M526.5,-31C587.8403,-31 605.6913,-31 662.2749,-31"/>
<polygon fill="#000000" stroke="#000000" points="662.5,-34.5001 672.5,-31 662.5,-27.5001 662.5,-34.5001"/>
</g>
<!-- testview1&#45;&gt;Filter_25 -->
<g id="edge11" class="edge">
<title>testview1:1-&gt;Filter_25:1</title>
<path fill="none" stroke="#000000" d="M526.5,-11C587.8403,-11 605.6913,-11 662.2749,-11"/>
<polygon fill="#000000" stroke="#000000" points="662.5,-14.5001 672.5,-11 662.5,-7.5001 662.5,-14.5001"/>
</g>
<!-- Aggregate_28&#45;&gt;testview1 -->
<g id="edge17" class="edge">
<title>Aggregate_28:0-&gt;testview1:0</title>
<path fill="none" stroke="#000000" d="M323.5,-31C384.8403,-31 402.6913,-31 459.2749,-31"/>
<polygon fill="#000000" stroke="#000000" points="459.5,-34.5001 469.5,-31 459.5,-27.5001 459.5,-34.5001"/>
</g>
<!-- Aggregate_28&#45;&gt;testview1 -->
<g id="edge18" class="edge">
<title>Aggregate_28:1-&gt;testview1:1</title>
<path fill="none" stroke="#000000" d="M323.5,-11C384.8403,-11 402.6913,-11 459.2749,-11"/>
<polygon fill="#000000" stroke="#000000" points="459.5,-14.5001 469.5,-11 459.5,-7.5001 459.5,-14.5001"/>
</g>
</g>
</svg>