<?xml version="1.0" encoding="UTF-8" standalone="no"?>
<!DOCTYPE svg PUBLIC "-//W3C//DTD SVG 1.1//EN"
 "http://www.w3.org/Graphics/SVG/1.1/DTD/svg11.dtd">
<!-- Generated by graphviz version 2.47.3 (20210619.1520)
 -->
<!-- Pages: 1 -->
<svg width="1108pt" height="282pt"
 viewBox="0.00 0.00 1108.00 282.00" xmlns="http://www.w3.org/2000/svg" xmlns:xlink="http://www.w3.org/1999/xlink">
<g id="graph0" class="graph" transform="scale(1 1) rotate(0) translate(36 246)">
<polygon fill="white" stroke="transparent" points="-36,36 -36,-246 1072,-246 1072,36 -36,36"/>
<!-- Aggregate_4 -->
<g id="node1" class="node">
<title>Aggregate_4</title>
<polygon fill="lightgray" stroke="transparent" points="197,-47.5 197,-66.5 271,-66.5 271,-47.5 197,-47.5"/>
<text text-anchor="start" x="199" y="-54.3" font-family="Times,serif" font-style="italic" font-size="14.00">Aggregate_4</text>
<text text-anchor="start" x="224" y="-34.3" font-family="Times,serif" font-size="14.00">key</text>
<text text-anchor="start" x="231" y="-15.3" font-family="Times,serif" font-size="14.00">s</text>
<polygon fill="none" stroke="lightgray" points="196,-9 196,-68 272,-68 272,-9 196,-9"/>
</g>
<!-- testview1 -->
<g id="node7" class="node">
<title>testview1</title>
<polygon fill="lightblue" stroke="transparent" points="363.5,-52.5 363.5,-73.5 420.5,-73.5 420.5,-52.5 363.5,-52.5"/>
<polygon fill="none" stroke="lightblue" points="363.5,-52.5 363.5,-73.5 420.5,-73.5 420.5,-52.5 363.5,-52.5"/>
<text text-anchor="start" x="366.5" y="-60.3" font-family="Times,serif" font-style="italic" font-size="14.00" fill="white">testview1</text>
<polygon fill="none" stroke="lightblue" points="363.5,-29.5 363.5,-50.5 420.5,-50.5 420.5,-29.5 363.5,-29.5"/>
<text text-anchor="start" x="382" y="-36.3" font-family="Times,serif" font-size="14.00">key</text>
<polygon fill="none" stroke="lightblue" points="363.5,-6.5 363.5,-27.5 420.5,-27.5 420.5,-6.5 363.5,-6.5"/>
<text text-anchor="start" x="389" y="-13.3" font-family="Times,serif" font-size="14.00">s</text>
<polygon fill="none" stroke="lightblue" points="360,-4 360,-77 423,-77 423,-4 360,-4"/>
</g>
<!-- Aggregate_4&#45;&gt;testview1 -->
<g id="edge1" class="edge">
<title>Aggregate_4:0&#45;&gt;testview1:0</title>
<path fill="none" stroke="black" d="M272,-37.5C308.62,-37.5 320.22,-39.16 352.34,-39.45"/>
<polygon fill="black" stroke="black" points="352.48,-42.96 362.5,-39.5 352.52,-35.96 352.48,-42.96"/>
</g>
<!-- Aggregate_4&#45;&gt;testview1 -->
<g id="edge2" class="edge">
<title>Aggregate_4:1&#45;&gt;testview1:1</title>
<path fill="none" stroke="black" d="M272,-18.5C308.62,-18.5 320.22,-16.84 352.34,-16.55"/>
<polygon fill="black" stroke="black" points="352.52,-20.04 362.5,-16.5 352.48,-13.04 352.52,-20.04"/>
</g>
<!-- Filter_0 -->
<g id="node2" class="node">
<title>Filter_0</title>
<polygon fill="lightgray" stroke="transparent" points="367.5,-185.5 367.5,-204.5 416.5,-204.5 416.5,-185.5 367.5,-185.5"/>
<text text-anchor="start" x="369.5" y="-192.3" font-family="Times,serif" font-style="italic" font-size="14.00">Filter_0</text>
<text text-anchor="start" x="382" y="-172.3" font-family="Times,serif" font-size="14.00">key</text>
<text text-anchor="start" x="377" y="-153.3" font-family="Times,serif" font-size="14.00">value</text>
<polygon fill="none" stroke="lightgray" points="366,-147 366,-206 417,-206 417,-147 366,-147"/>
</g>
<!-- Join_Inner_2 -->
<g id="node4" class="node">
<title>Join_Inner_2</title>
<polygon fill="lightgray" stroke="transparent" points="651.5,-120.5 651.5,-139.5 728.5,-139.5 728.5,-120.5 651.5,-120.5"/>
<text text-anchor="start" x="653.5" y="-127.3" font-family="Times,serif" font-style="italic" font-size="14.00">Join_Inner_2</text>
<text text-anchor="start" x="680" y="-107.3" font-family="Times,serif" font-size="14.00">key</text>
<text text-anchor="start" x="675" y="-88.3" font-family="Times,serif" font-size="14.00">value</text>
<text text-anchor="start" x="680" y="-69.3" font-family="Times,serif" font-size="14.00">key</text>
<text text-anchor="start" x="687" y="-50.3" font-family="Times,serif" font-size="14.00">s</text>
<polygon fill="none" stroke="lightgray" points="650,-44 650,-141 729,-141 729,-44 650,-44"/>
</g>
<!-- Filter_0&#45;&gt;Join_Inner_2 -->
<g id="edge3" class="edge">
<title>Filter_0:0&#45;&gt;Join_Inner_2:0</title>
<path fill="none" stroke="black" d="M417.5,-175.5C485.86,-175.5 505.01,-176.7 570,-155.5 605.28,-143.99 609.25,-116.98 640.42,-112.22"/>
<polygon fill="black" stroke="black" points="640.78,-115.71 650.5,-111.5 640.28,-108.72 640.78,-115.71"/>
</g>
<!-- Filter_0&#45;&gt;Join_Inner_2 -->
<g id="edge4" class="edge">
<title>Filter_0:1&#45;&gt;Join_Inner_2:1</title>
<path fill="none" stroke="black" d="M417.5,-156.5C521.54,-156.5 541.74,-95.62 640.38,-91.7"/>
<polygon fill="black" stroke="black" points="640.57,-95.2 650.5,-91.5 640.43,-88.2 640.57,-95.2"/>
</g>
<!-- Filter_1 -->
<g id="node3" class="node">
<title>Filter_1</title>
<polygon fill="lightgray" stroke="transparent" points="512.5,-47.5 512.5,-66.5 561.5,-66.5 561.5,-47.5 512.5,-47.5"/>
<text text-anchor="start" x="514.5" y="-54.3" font-family="Times,serif" font-style="italic" font-size="14.00">Filter_1</text>
<text text-anchor="start" x="527" y="-34.3" font-family="Times,serif" font-size="14.00">key</text>
<text text-anchor="start" x="534" y="-15.3" font-family="Times,serif" font-size="14.00">s</text>
<polygon fill="none" stroke="lightgray" points="511,-9 511,-68 562,-68 562,-9 511,-9"/>
</g>
<!-- Filter_1&#45;&gt;Join_Inner_2 -->
<g id="edge5" class="edge">
<title>Filter_1:0&#45;&gt;Join_Inner_2:2</title>
<path fill="none" stroke="black" d="M562.5,-37.5C600.97,-37.5 607.47,-66.74 640.45,-71.77"/>
<polygon fill="black" stroke="black" points="640.27,-75.27 650.5,-72.5 640.78,-68.28 640.27,-75.27"/>
</g>
<!-- Filter_1&#45;&gt;Join_Inner_2 -->
<g id="edge6" class="edge">
<title>Filter_1:1&#45;&gt;Join_Inner_2:3</title>
<path fill="none" stroke="black" d="M562.5,-18.5C600.97,-18.5 607.47,-47.74 640.45,-52.77"/>
<polygon fill="black" stroke="black" points="640.27,-56.27 650.5,-53.5 640.78,-49.28 640.27,-56.27"/>
</g>
<!-- Project_3 -->
<g id="node5" class="node">
<title>Project_3</title>
<polygon fill="lightgray" stroke="transparent" points="818,-120.5 818,-139.5 876,-139.5 876,-120.5 818,-120.5"/>
<text text-anchor="start" x="820" y="-127.3" font-family="Times,serif" font-style="italic" font-size="14.00">Project_3</text>
<text text-anchor="start" x="837" y="-107.3" font-family="Times,serif" font-size="14.00">key</text>
<text text-anchor="start" x="832" y="-88.3" font-family="Times,serif" font-size="14.00">value</text>
<text text-anchor="start" x="844" y="-69.3" font-family="Times,serif" font-size="14.00">s</text>
<polygon fill="none" stroke="lightgray" points="817,-62.5 817,-140.5 877,-140.5 877,-62.5 817,-62.5"/>
</g>
<!-- Join_Inner_2&#45;&gt;Project_3 -->
<g id="edge7" class="edge">
<title>Join_Inner_2:0&#45;&gt;Project_3:0</title>
<path fill="none" stroke="black" d="M729.5,-111.5C764.74,-111.5 776.03,-111.5 806.78,-111.5"/>
<polygon fill="black" stroke="black" points="807,-115 817,-111.5 807,-108 807,-115"/>
</g>
<!-- Join_Inner_2&#45;&gt;Project_3 -->
<g id="edge8" class="edge">
<title>Join_Inner_2:1&#45;&gt;Project_3:1</title>
<path fill="none" stroke="black" d="M729.5,-91.5C764.74,-91.5 776.03,-91.5 806.78,-91.5"/>
<polygon fill="black" stroke="black" points="807,-95 817,-91.5 807,-88 807,-95"/>
</g>
<!-- Join_Inner_2&#45;&gt;Project_3 -->
<g id="edge9" class="edge">
<title>Join_Inner_2:3&#45;&gt;Project_3:2</title>
<path fill="none" stroke="black" d="M729.5,-53.5C765.72,-53.5 775.53,-69.24 807,-72.07"/>
<polygon fill="black" stroke="black" points="806.86,-75.56 817,-72.5 807.16,-68.57 806.86,-75.56"/>
</g>
<!-- testview2 -->
<g id="node8" class="node">
<title>testview2</title>
<polygon fill="black" stroke="transparent" points="968.5,-127.5 968.5,-148.5 1025.5,-148.5 1025.5,-127.5 968.5,-127.5"/>
<polygon fill="none" stroke="black" points="968.5,-127.5 968.5,-148.5 1025.5,-148.5 1025.5,-127.5 968.5,-127.5"/>
<text text-anchor="start" x="971.5" y="-135.3" font-family="Times,serif" font-style="italic" font-size="14.00" fill="white">testview2</text>
<polygon fill="none" stroke="black" points="968.5,-104.5 968.5,-125.5 1025.5,-125.5 1025.5,-104.5 968.5,-104.5"/>
<text text-anchor="start" x="987" y="-111.3" font-family="Times,serif" font-size="14.00">key</text>
<polygon fill="none" stroke="black" points="968.5,-81.5 968.5,-102.5 1025.5,-102.5 1025.5,-81.5 968.5,-81.5"/>
<text text-anchor="start" x="982" y="-88.3" font-family="Times,serif" font-size="14.00">value</text>
<polygon fill="none" stroke="black" points="968.5,-58.5 968.5,-79.5 1025.5,-79.5 1025.5,-58.5 968.5,-58.5"/>
<text text-anchor="start" x="994" y="-65.3" font-family="Times,serif" font-size="14.00">s</text>
<polygon fill="none" stroke="black" points="965,-55.5 965,-151.5 1028,-151.5 1028,-55.5 965,-55.5"/>
</g>
<!-- Project_3&#45;&gt;testview2 -->
<g id="edge10" class="edge">
<title>Project_3:0&#45;&gt;testview2:0</title>
<path fill="none" stroke="black" d="M877,-111.5C913.64,-111.5 925.2,-114.81 957.34,-115.41"/>
<polygon fill="black" stroke="black" points="957.47,-118.91 967.5,-115.5 957.53,-111.91 957.47,-118.91"/>
</g>
<!-- Project_3&#45;&gt;testview2 -->
<g id="edge11" class="edge">
<title>Project_3:1&#45;&gt;testview2:1</title>
<path fill="none" stroke="black" d="M877,-91.5C913.61,-91.5 925.23,-91.5 957.35,-91.5"/>
<polygon fill="black" stroke="black" points="957.5,-95 967.5,-91.5 957.5,-88 957.5,-95"/>
</g>
<!-- Project_3&#45;&gt;testview2 -->
<g id="edge12" class="edge">
<title>Project_3:2&#45;&gt;testview2:2</title>
<path fill="none" stroke="black" d="M877,-72.5C913.64,-72.5 925.2,-69.19 957.34,-68.59"/>
<polygon fill="black" stroke="black" points="957.53,-72.09 967.5,-68.5 957.47,-65.09 957.53,-72.09"/>
</g>
<!-- default.testtable -->
<g id="node6" class="node">
<title>default.testtable</title>
<polygon fill="black" stroke="transparent" points="11,-108.5 11,-129.5 105,-129.5 105,-108.5 11,-108.5"/>
<polygon fill="none" stroke="black" points="11,-108.5 11,-129.5 105,-129.5 105,-108.5 11,-108.5"/>
<text text-anchor="start" x="14" y="-116.3" font-family="Times,serif" font-style="italic" font-size="14.00" fill="white">default.testtable</text>
<polygon fill="none" stroke="black" points="11,-85.5 11,-106.5 105,-106.5 105,-85.5 11,-85.5"/>
<text text-anchor="start" x="48" y="-92.3" font-family="Times,serif" font-size="14.00">key</text>
<polygon fill="none" stroke="black" points="11,-62.5 11,-83.5 105,-83.5 105,-62.5 11,-62.5"/>
<text text-anchor="start" x="43" y="-69.3" font-family="Times,serif" font-size="14.00">value</text>
<polygon fill="none" stroke="black" points="8,-60 8,-133 108,-133 108,-60 8,-60"/>
</g>
<!-- default.testtable&#45;&gt;Aggregate_4 -->
<g id="edge13" class="edge">
<title>default.testtable:0&#45;&gt;Aggregate_4:0</title>
<path fill="none" stroke="black" d="M106,-95.5C149.87,-95.5 148.9,-46.21 185.76,-38.51"/>
<polygon fill="black" stroke="black" points="186.39,-41.96 196,-37.5 185.71,-35 186.39,-41.96"/>
</g>
<!-- default.testtable&#45;&gt;Aggregate_4 -->
<g id="edge15" class="edge">
<title>default.testtable:1&#45;&gt;Aggregate_4:1</title>
<path fill="none" stroke="black" d="M106,-72.5C149,-72.5 149.56,-26.61 185.93,-19.44"/>
<polygon fill="black" stroke="black" points="186.37,-22.91 196,-18.5 185.72,-15.94 186.37,-22.91"/>
</g>
<!-- default.testtable&#45;&gt;Filter_0 -->
<g id="edge14" class="edge">
<title>default.testtable:0&#45;&gt;Filter_0:0</title>
<path fill="none" stroke="black" d="M106,-95.5C151.16,-95.5 145.92,-139.1 188,-155.5 259.04,-183.19 284.39,-176.23 356.07,-175.55"/>
<polygon fill="black" stroke="black" points="356.52,-179.05 366.5,-175.5 356.48,-172.05 356.52,-179.05"/>
</g>
<!-- default.testtable&#45;&gt;Filter_0 -->
<g id="edge16" class="edge">
<title>default.testtable:1&#45;&gt;Filter_0:1</title>
<path fill="none" stroke="black" d="M106,-72.5C163.62,-72.5 291.25,-147.87 356.25,-155.82"/>
<polygon fill="black" stroke="black" points="356.29,-159.33 366.5,-156.5 356.75,-152.35 356.29,-159.33"/>
</g>
<!-- testview1&#45;&gt;Filter_1 -->
<g id="edge17" class="edge">
<title>testview1:0&#45;&gt;Filter_1:0</title>
<path fill="none" stroke="black" d="M421.5,-39.5C457.92,-39.5 469.45,-37.84 501.4,-37.55"/>
<polygon fill="black" stroke="black" points="501.52,-41.05 511.5,-37.5 501.48,-34.05 501.52,-41.05"/>
</g>
<!-- testview1&#45;&gt;Filter_1 -->
<g id="edge18" class="edge">
<title>testview1:1&#45;&gt;Filter_1:1</title>
<path fill="none" stroke="black" d="M421.5,-16.5C457.92,-16.5 469.45,-18.16 501.4,-18.45"/>
<polygon fill="black" stroke="black" points="501.48,-21.95 511.5,-18.5 501.52,-14.95 501.48,-21.95"/>
</g>
</g>
</svg>
