<?xml version="1.0" encoding="UTF-8" standalone="no"?>
<!DOCTYPE svg PUBLIC "-//W3C//DTD SVG 1.1//EN"
 "http://www.w3.org/Graphics/SVG/1.1/DTD/svg11.dtd">
<!-- Generated by graphviz version 2.47.3 (20210619.1520)
 -->
<!-- Pages: 1 -->
<svg width="490pt" height="203pt"
 viewBox="0.00 0.00 490.00 202.68" xmlns="http://www.w3.org/2000/svg" xmlns:xlink="http://www.w3.org/1999/xlink">
<g id="graph0" class="graph" transform="scale(1 1) rotate(0) translate(36 166.68)">
<polygon fill="white" stroke="transparent" points="-36,36 -36,-166.68 454,-166.68 454,36 -36,36"/>
<!-- default.testtable -->
<g id="node1" class="node">
<title>default.testtable</title>
<polygon fill="black" stroke="transparent" points="11,-76.05 11,-97.05 105,-97.05 105,-76.05 11,-76.05"/>
<polygon fill="none" stroke="black" points="11,-76.05 11,-97.05 105,-97.05 105,-76.05 11,-76.05"/>
<text text-anchor="start" x="14" y="-83.85" font-family="Times,serif" font-style="italic" font-size="14.00" fill="white">default.testtable</text>
<polygon fill="none" stroke="black" points="11,-53.05 11,-74.05 105,-74.05 105,-53.05 11,-53.05"/>
<text text-anchor="start" x="48" y="-59.85" font-family="Times,serif" font-size="14.00">key</text>
<polygon fill="none" stroke="black" points="11,-30.05 11,-51.05 105,-51.05 105,-30.05 11,-30.05"/>
<text text-anchor="start" x="43" y="-36.85" font-family="Times,serif" font-size="14.00">value</text>
<polygon fill="none" stroke="black" points="8,-27.55 8,-100.55 108,-100.55 108,-27.55 8,-27.55"/>
</g>
<!-- testview1 -->
<g id="node2" class="node">
<title>testview1</title>
<polygon fill="lightblue" stroke="transparent" points="199.5,-76.05 199.5,-97.05 256.5,-97.05 256.5,-76.05 199.5,-76.05"/>
<polygon fill="none" stroke="lightblue" points="199.5,-76.05 199.5,-97.05 256.5,-97.05 256.5,-76.05 199.5,-76.05"/>
<text text-anchor="start" x="202.5" y="-83.85" font-family="Times,serif" font-style="italic" font-size="14.00" fill="white">testview1</text>
<polygon fill="none" stroke="lightblue" points="199.5,-53.05 199.5,-74.05 256.5,-74.05 256.5,-53.05 199.5,-53.05"/>
<text text-anchor="start" x="218" y="-59.85" font-family="Times,serif" font-size="14.00">key</text>
<polygon fill="none" stroke="lightblue" points="199.5,-30.05 199.5,-51.05 256.5,-51.05 256.5,-30.05 199.5,-30.05"/>
<text text-anchor="start" x="225" y="-36.85" font-family="Times,serif" font-size="14.00">s</text>
<polygon fill="none" stroke="lightblue" points="196,-27.55 196,-100.55 259,-100.55 259,-27.55 196,-27.55"/>
</g>
<!-- default.testtable&#45;&gt;testview1 -->
<g id="edge1" class="edge">
<title>default.testtable:0&#45;&gt;testview1:0</title>
<path fill="none" stroke="black" d="M106,-63.05C143.42,-63.05 155.29,-63.05 188.12,-63.05"/>
<polygon fill="black" stroke="black" points="188.5,-66.55 198.5,-63.05 188.5,-59.55 188.5,-66.55"/>
</g>
<!-- default.testtable&#45;&gt;testview1 -->
<g id="edge3" class="edge">
<title>default.testtable:1&#45;&gt;testview1:1</title>
<path fill="none" stroke="black" d="M106,-40.05C143.42,-40.05 155.29,-40.05 188.12,-40.05"/>
<polygon fill="black" stroke="black" points="188.5,-43.55 198.5,-40.05 188.5,-36.55 188.5,-43.55"/>
</g>
<!-- testview2 -->
<g id="node3" class="node">
<title>testview2</title>
<polygon fill="black" stroke="transparent" points="350.5,-87.05 350.5,-108.05 407.5,-108.05 407.5,-87.05 350.5,-87.05"/>
<polygon fill="none" stroke="black" points="350.5,-87.05 350.5,-108.05 407.5,-108.05 407.5,-87.05 350.5,-87.05"/>
<text text-anchor="start" x="353.5" y="-94.85" font-family="Times,serif" font-style="italic" font-size="14.00" fill="white">testview2</text>
<polygon fill="none" stroke="black" points="350.5,-64.05 350.5,-85.05 407.5,-85.05 407.5,-64.05 350.5,-64.05"/>
<text text-anchor="start" x="369" y="-70.85" font-family="Times,serif" font-size="14.00">key</text>
<polygon fill="none" stroke="black" points="350.5,-41.05 350.5,-62.05 407.5,-62.05 407.5,-41.05 350.5,-41.05"/>
<text text-anchor="start" x="364" y="-47.85" font-family="Times,serif" font-size="14.00">value</text>
<polygon fill="none" stroke="black" points="350.5,-18.05 350.5,-39.05 407.5,-39.05 407.5,-18.05 350.5,-18.05"/>
<text text-anchor="start" x="376" y="-24.85" font-family="Times,serif" font-size="14.00">s</text>
<polygon fill="none" stroke="black" points="347,-15.05 347,-111.05 410,-111.05 410,-15.05 347,-15.05"/>
</g>
<!-- default.testtable&#45;&gt;testview2 -->
<g id="edge2" class="edge">
<title>default.testtable:0&#45;&gt;testview2:0</title>
<path fill="none" stroke="black" d="M106,-63.05C151.16,-63.05 145.08,-109.02 188,-123.05 221.37,-133.96 233.1,-132.2 267,-123.05 304.44,-112.95 306.92,-81.21 339.47,-75.83"/>
<polygon fill="black" stroke="black" points="339.8,-79.32 349.5,-75.05 339.26,-72.34 339.8,-79.32"/>
</g>
<!-- default.testtable&#45;&gt;testview2 -->
<g id="edge4" class="edge">
<title>default.testtable:1&#45;&gt;testview2:1</title>
<path fill="none" stroke="black" d="M106,-40.05C145.45,-40.05 149.31,-13.76 188,-6.05 222.44,0.8 232.98,2.62 267,-6.05 303.84,-15.44 307.36,-45.02 339.19,-50.25"/>
<polygon fill="black" stroke="black" points="339.26,-53.77 349.5,-51.05 339.8,-46.79 339.26,-53.77"/>
</g>
<!-- testview1&#45;&gt;testview2 -->
<g id="edge5" class="edge">
<title>testview1:0&#45;&gt;testview2:0</title>
<path fill="none" stroke="black" d="M257.5,-63.05C295.03,-63.05 306.3,-72.99 339.11,-74.78"/>
<polygon fill="black" stroke="black" points="339.41,-78.29 349.5,-75.05 339.6,-71.29 339.41,-78.29"/>
</g>
<!-- testview1&#45;&gt;testview2 -->
<g id="edge6" class="edge">
<title>testview1:1&#45;&gt;testview2:2</title>
<path fill="none" stroke="black" d="M257.5,-40.05C295.03,-40.05 306.3,-30.11 339.11,-28.32"/>
<polygon fill="black" stroke="black" points="339.6,-31.81 349.5,-28.05 339.41,-24.82 339.6,-31.81"/>
</g>
</g>
</svg>
