<?xml version="1.0" encoding="UTF-8" standalone="no"?>
<!DOCTYPE svg PUBLIC "-//W3C//DTD SVG 1.1//EN"
 "http://www.w3.org/Graphics/SVG/1.1/DTD/svg11.dtd">
<!-- Generated by graphviz version 2.47.3 (20210619.1520)
 -->
<!-- Pages: 1 -->
<svg width="852pt" height="132pt"
 viewBox="0.00 0.00 852.00 131.50" xmlns="http://www.w3.org/2000/svg" xmlns:xlink="http://www.w3.org/1999/xlink">
<g id="graph0" class="graph" transform="scale(1 1) rotate(0) translate(36 95.5)">
<polygon fill="white" stroke="transparent" points="-36,36 -36,-95.5 816,-95.5 816,36 -36,36"/>
<!-- Range_0 -->
<g id="node1" class="node">
<title>Range_0</title>
<polygon fill="lightpink" stroke="transparent" points="1.5,-30 1.5,-49 54.5,-49 54.5,-30 1.5,-30"/>
<text text-anchor="start" x="3.5" y="-36.8" font-family="Times,serif" font-style="italic" font-size="14.00">Range_0</text>
<text text-anchor="start" x="22.5" y="-16.8" font-family="Times,serif" font-size="14.00">id</text>
<polygon fill="none" stroke="black" points="0,-10 0,-50 55,-50 55,-10 0,-10"/>
</g>
<!-- transform_alpha -->
<g id="node2" class="node">
<title>transform_alpha</title>
<polygon fill="lightyellow" stroke="transparent" points="200.5,-39 200.5,-58 295.5,-58 295.5,-39 200.5,-39"/>
<text text-anchor="start" x="202.5" y="-45.8" font-family="Times,serif" font-style="italic" font-size="14.00">transform_alpha</text>
<text text-anchor="start" x="238" y="-25.8" font-family="Times,serif" font-size="14.00">key</text>
<text text-anchor="start" x="233" y="-6.8" font-family="Times,serif" font-size="14.00">value</text>
<polygon fill="none" stroke="black" points="199,-0.5 199,-59.5 296,-59.5 296,-0.5 199,-0.5"/>
</g>
<!-- Range_0&#45;&gt;transform_alpha -->
<g id="edge1" class="edge">
<title>Range_0:0&#45;&gt;transform_alpha:0</title>
<path fill="none" stroke="black" d="M55,-20C115.83,-20 133.28,-28.04 189.36,-28.92"/>
<polygon fill="black" stroke="black" points="189.47,-32.42 199.5,-29 189.53,-25.42 189.47,-32.42"/>
</g>
<!-- Range_0&#45;&gt;transform_alpha -->
<g id="edge2" class="edge">
<title>Range_0:0&#45;&gt;transform_alpha:1</title>
<path fill="none" stroke="black" d="M55,-20C115.86,-20 133.26,-11.06 189.36,-10.09"/>
<polygon fill="black" stroke="black" points="189.53,-13.59 199.5,-10 189.47,-6.59 189.53,-13.59"/>
</g>
<!-- transform_beta -->
<g id="node3" class="node">
<title>transform_beta</title>
<polygon fill="lightyellow" stroke="transparent" points="441,-39 441,-58 529,-58 529,-39 441,-39"/>
<text text-anchor="start" x="443" y="-45.8" font-family="Times,serif" font-style="italic" font-size="14.00">transform_beta</text>
<text text-anchor="start" x="475" y="-25.8" font-family="Times,serif" font-size="14.00">key</text>
<text text-anchor="start" x="470" y="-6.8" font-family="Times,serif" font-size="14.00">value</text>
<polygon fill="none" stroke="black" points="440,-0.5 440,-59.5 530,-59.5 530,-0.5 440,-0.5"/>
</g>
<!-- transform_alpha&#45;&gt;transform_beta -->
<g id="edge3" class="edge">
<title>transform_alpha:0&#45;&gt;transform_beta:0</title>
<path fill="none" stroke="black" d="M296,-29C356.5,-29 374.11,-29 429.91,-29"/>
<polygon fill="black" stroke="black" points="430,-32.5 440,-29 430,-25.5 430,-32.5"/>
</g>
<!-- transform_alpha&#45;&gt;transform_beta -->
<g id="edge4" class="edge">
<title>transform_alpha:1&#45;&gt;transform_beta:1</title>
<path fill="none" stroke="black" d="M296,-10C356.5,-10 374.11,-10 429.91,-10"/>
<polygon fill="black" stroke="black" points="430,-13.5 440,-10 430,-6.5 430,-13.5"/>
</g>
<!-- transform_gamma -->
<g id="node4" class="node">
<title>transform_gamma</title>
<polygon fill="lightyellow" stroke="transparent" points="675,-20 675,-39 779,-39 779,-20 675,-20"/>
<text text-anchor="start" x="677" y="-26.8" font-family="Times,serif" font-style="italic" font-size="14.00">transform_gamma</text>
<text text-anchor="start" x="718.5" y="-6.8" font-family="Times,serif" font-size="14.00">col</text>
<polygon fill="none" stroke="black" points="674,0 674,-40 780,-40 780,0 674,0"/>
</g>
<!-- transform_beta&#45;&gt;transform_gamma -->
<g id="edge5" class="edge">
<title>transform_beta:1&#45;&gt;transform_gamma:0</title>
<path fill="none" stroke="black" d="M530,-10C590.5,-10 608.11,-10 663.91,-10"/>
<polygon fill="black" stroke="black" points="664,-13.5 674,-10 664,-6.5 664,-13.5"/>
</g>
</g>
</svg>
