<?xml version="1.0" encoding="UTF-8" standalone="no"?>
<!DOCTYPE svg PUBLIC "-//W3C//DTD SVG 1.1//EN"
 "http://www.w3.org/Graphics/SVG/1.1/DTD/svg11.dtd">
<!-- Generated by graphviz version 2.47.3 (20210619.1520)
 -->
<!-- Pages: 1 -->
<svg width="568pt" height="172pt"
 viewBox="0.00 0.00 568.00 171.62" xmlns="http://www.w3.org/2000/svg" xmlns:xlink="http://www.w3.org/1999/xlink">
<g id="graph0" class="graph" transform="scale(1 1) rotate(0) translate(36 135.62)">
<polygon fill="white" stroke="transparent" points="-36,36 -36,-135.62 532,-135.62 532,36 -36,36"/>
<!-- default.testtable -->
<g id="node1" class="node">
<title>default.testtable</title>
<polygon fill="lightpink" stroke="transparent" points="1,-58 1,-77 93,-77 93,-58 1,-58"/>
<text text-anchor="start" x="3" y="-64.8" font-family="Times,serif" font-style="italic" font-size="14.00">default.testtable</text>
<text text-anchor="start" x="37" y="-44.8" font-family="Times,serif" font-size="14.00">key</text>
<text text-anchor="start" x="32" y="-25.8" font-family="Times,serif" font-size="14.00">value</text>
<polygon fill="none" stroke="black" points="0,-19.5 0,-78.5 94,-78.5 94,-19.5 0,-19.5"/>
</g>
<!-- testview1 -->
<g id="node2" class="node">
<title>testview1</title>
<polygon fill="lightblue" stroke="transparent" points="239.5,-58 239.5,-77 294.5,-77 294.5,-58 239.5,-58"/>
<text text-anchor="start" x="241.5" y="-64.8" font-family="Times,serif" font-style="italic" font-size="14.00">testview1</text>
<text text-anchor="start" x="257" y="-44.8" font-family="Times,serif" font-size="14.00">key</text>
<text text-anchor="start" x="264" y="-25.8" font-family="Times,serif" font-size="14.00">s</text>
<polygon fill="none" stroke="black" points="238,-19.5 238,-78.5 295,-78.5 295,-19.5 238,-19.5"/>
</g>
<!-- default.testtable&#45;&gt;testview1 -->
<g id="edge1" class="edge">
<title>default.testtable:0&#45;&gt;testview1:0</title>
<path fill="none" stroke="black" d="M94,-48C154.71,-48 172.38,-48 228.38,-48"/>
<polygon fill="black" stroke="black" points="228.5,-51.5 238.5,-48 228.5,-44.5 228.5,-51.5"/>
</g>
<!-- default.testtable&#45;&gt;testview1 -->
<g id="edge3" class="edge">
<title>default.testtable:1&#45;&gt;testview1:1</title>
<path fill="none" stroke="black" d="M94,-29C154.71,-29 172.38,-29 228.38,-29"/>
<polygon fill="black" stroke="black" points="228.5,-32.5 238.5,-29 228.5,-25.5 228.5,-32.5"/>
</g>
<!-- testview2 -->
<g id="node3" class="node">
<title>testview2</title>
<polygon fill="lightyellow" stroke="transparent" points="440.5,-67 440.5,-86 495.5,-86 495.5,-67 440.5,-67"/>
<text text-anchor="start" x="442.5" y="-73.8" font-family="Times,serif" font-style="italic" font-size="14.00">testview2</text>
<text text-anchor="start" x="458" y="-53.8" font-family="Times,serif" font-size="14.00">key</text>
<text text-anchor="start" x="453" y="-34.8" font-family="Times,serif" font-size="14.00">value</text>
<text text-anchor="start" x="465" y="-15.8" font-family="Times,serif" font-size="14.00">s</text>
<polygon fill="none" stroke="black" points="439,-9 439,-87 496,-87 496,-9 439,-9"/>
</g>
<!-- default.testtable&#45;&gt;testview2 -->
<g id="edge2" class="edge">
<title>default.testtable:0&#45;&gt;testview2:0</title>
<path fill="none" stroke="black" d="M94,-48C161.6,-48 171.3,-85.97 238,-97 324.57,-111.33 346.64,-62.01 429.38,-58.23"/>
<polygon fill="black" stroke="black" points="429.58,-61.73 439.5,-58 429.42,-54.73 429.58,-61.73"/>
</g>
<!-- default.testtable&#45;&gt;testview2 -->
<g id="edge4" class="edge">
<title>default.testtable:1&#45;&gt;testview2:1</title>
<path fill="none" stroke="black" d="M94,-29C184.14,-29 205.54,8.97 295,-2 357.23,-9.64 371.84,-35.11 429.46,-37.78"/>
<polygon fill="black" stroke="black" points="429.42,-41.28 439.5,-38 429.58,-34.28 429.42,-41.28"/>
</g>
<!-- testview1&#45;&gt;testview2 -->
<g id="edge5" class="edge">
<title>testview1:0&#45;&gt;testview2:0</title>
<path fill="none" stroke="black" d="M295,-48C355.86,-48 373.26,-56.94 429.36,-57.92"/>
<polygon fill="black" stroke="black" points="429.47,-61.42 439.5,-58 429.53,-54.42 429.47,-61.42"/>
</g>
<!-- testview1&#45;&gt;testview2 -->
<g id="edge6" class="edge">
<title>testview1:1&#45;&gt;testview2:2</title>
<path fill="none" stroke="black" d="M295,-29C355.86,-29 373.26,-20.07 429.36,-19.09"/>
<polygon fill="black" stroke="black" points="429.53,-22.59 439.5,-19 429.47,-15.59 429.53,-22.59"/>
</g>
</g>
</svg>
