<svg xmlns="http://www.w3.org/2000/svg" width="896.78125" height="190.87823486328125" viewBox="-467.4673767089844 56.342735290527344 896.78125 190.87823486328125"><title>Neo4j Graph Visualization</title><desc>Created using Neo4j (http://www.neo4j.com/)</desc><g class="layer relationships"><g class="relationship" transform="translate(124.72481205695712 133.2476090767625) rotate(359.71192527158735)"><path class="outline" fill="#F16667" stroke="none" d="M 25 0.5 L 38.40418362353785 0.5 L 38.40418362353785 -0.5 L 25 -0.5 Z M 91.53308987353785 0.5 L 104.9372734970757 0.5 L 104.9372734970757 3.5 L 111.9372734970757 0 L 104.9372734970757 -3.5 L 104.9372734970757 -0.5 L 91.53308987353785 -0.5 Z"/><text text-anchor="middle" pointer-events="none" font-size="8px" fill="#000000" x="64.96863674853785" y="3" font-family="sans-serif">transformInto</text></g><g class="relationship" transform="translate(0.5695333931166715 201.456077190001) rotate(331.2164720509738)"><path class="outline" fill="#F16667" stroke="none" d="M 25 0.5 L 40.76443988916928 0.5 L 40.76443988916928 -0.5 L 25 -0.5 Z M 93.89334613916928 0.5 L 109.65778602833856 0.5 L 109.65778602833856 3.5 L 116.65778602833856 0 L 109.65778602833856 -3.5 L 109.65778602833856 -0.5 L 93.89334613916928 -0.5 Z"/><text text-anchor="middle" pointer-events="none" font-size="8px" fill="#000000" x="67.32889301416928" y="3" font-family="sans-serif">transformInto</text></g><g class="relationship" transform="translate(261.6603547184161 132.5591115643102) rotate(360.30349169122735)"><path class="outline" fill="#F16667" stroke="none" d="M 25 0.5 L 39.26327340270949 0.5 L 39.26327340270949 -0.5 L 25 -0.5 Z M 92.39217965270949 0.5 L 106.65545305541897 0.5 L 106.65545305541897 3.5 L 113.65545305541897 0 L 106.65545305541897 -3.5 L 106.65545305541897 -0.5 L 92.39217965270949 -0.5 Z"/><text text-anchor="middle" pointer-events="none" font-size="8px" fill="#000000" x="65.82772652770949" y="3" font-family="sans-serif">transformInto</text></g><g class="relationship" transform="translate(-286.28823220662844 195.3214332941742) rotate(369.28029127656964)"><path class="outline" fill="#F16667" stroke="none" d="M 25 0.5 L 40.935560241313866 0.5 L 40.935560241313866 -0.5 L 25 -0.5 Z M 94.06446649131387 0.5 L 110.00002673262773 0.5 L 110.00002673262773 3.5 L 117.00002673262773 0 L 110.00002673262773 -3.5 L 110.00002673262773 -0.5 L 94.06446649131387 -0.5 Z"/><text text-anchor="middle" pointer-events="none" font-size="8px" fill="#000000" x="67.50001336631387" y="3" font-family="sans-serif">transformInto</text></g><g class="relationship" transform="translate(-438.46738755379204 129.4326042795205) rotate(351.4791770983127)"><path class="outline" fill="#F16667" stroke="none" d="M 25 0.5 L 118.71808514983223 0.5 L 118.71808514983223 -0.5 L 25 -0.5 Z M 171.84699139983223 0.5 L 265.56507654966447 0.5 L 265.56507654966447 3.5 L 272.56507654966447 0 L 265.56507654966447 -3.5 L 265.56507654966447 -0.5 L 171.84699139983223 -0.5 Z"/><text text-anchor="middle" pointer-events="none" font-size="8px" fill="#000000" x="145.28253827483223" y="3" font-family="sans-serif">transformInto</text></g><g class="relationship" transform="translate(-438.46738755379204 129.4326042795205) rotate(383.4111070550951)"><path class="outline" fill="#F16667" stroke="none" d="M 25 0.5 L 52.850915039017735 0.5 L 52.850915039017735 -0.5 L 25 -0.5 Z M 105.97982128901774 0.5 L 133.83073632803547 0.5 L 133.83073632803547 3.5 L 140.83073632803547 0 L 133.83073632803547 -3.5 L 133.83073632803547 -0.5 L 105.97982128901774 -0.5 Z"/><text text-anchor="middle" pointer-events="none" font-size="8px" fill="#000000" x="79.41536816401774" y="3" font-family="sans-serif">transformInto</text></g><g class="relationship" transform="translate(-144.1868105314078 85.34273277392128) rotate(370.1009129296197)"><path class="outline" fill="#F16667" stroke="none" d="M 25 0.5 L 106.50818133803742 0.5 L 106.50818133803742 -0.5 L 25 -0.5 Z M 159.63708758803742 0.5 L 241.14526892607483 0.5 L 241.14526892607483 3.5 L 248.14526892607483 0 L 241.14526892607483 -3.5 L 241.14526892607483 -0.5 L 159.63708758803742 -0.5 Z"/><text text-anchor="middle" pointer-events="none" font-size="8px" fill="#000000" x="133.07263446303742" y="3" font-family="sans-serif">transformInto</text></g><g class="relationship" transform="translate(-146.1468087718059 218.22097542341243) rotate(353.48123278977846)"><path class="outline" fill="#F16667" stroke="none" d="M 25 0.5 L 43.77108518655983 0.5 L 43.77108518655983 -0.5 L 25 -0.5 Z M 96.89999143655983 0.5 L 115.67107662311966 0.5 L 115.67107662311966 3.5 L 122.67107662311966 0 L 115.67107662311966 -3.5 L 115.67107662311966 -0.5 L 96.89999143655983 -0.5 Z"/><text text-anchor="middle" pointer-events="none" font-size="8px" fill="#000000" x="70.33553831155983" y="3" font-family="sans-serif">transformInto</text></g></g><g class="layer nodes"><g class="node" transform="translate(124.72481205695712,133.2476090767625)"><circle class="outline" cx="0" cy="0" r="25" fill="#D9C8AE" stroke="#c0a378" stroke-width="2px"/><text text-anchor="middle" pointer-events="none" font-family="sans-serif" dy="1.5625" font-size="25" fill="#2A2C34"/><text text-anchor="middle" pointer-events="none" x="0" y="5" font-size="10px" fill="#2A2C34" font-family="sans-serif"> Join_Inn…</text></g><g class="node" transform="translate(0.5695333931166715,201.456077190001)"><circle class="outline" cx="0" cy="0" r="25" fill="#D9C8AE" stroke="#c0a378" stroke-width="2px"/><text text-anchor="middle" pointer-events="none" font-family="sans-serif" dy="1.5625" font-size="25" fill="#2A2C34"/><text text-anchor="middle" pointer-events="none" x="0" y="5" font-size="10px" fill="#2A2C34" font-family="sans-serif"> Filter</text></g><g class="node" transform="translate(261.6603547184161,132.5591115643102)"><circle class="outline" cx="0" cy="0" r="25" fill="#D9C8AE" stroke="#c0a378" stroke-width="2px"/><text text-anchor="middle" pointer-events="none" font-family="sans-serif" dy="1.5625" font-size="25" fill="#2A2C34"/><text text-anchor="middle" pointer-events="none" x="0" y="5" font-size="10px" fill="#2A2C34" font-family="sans-serif"> Project</text></g><g class="node" transform="translate(-286.28823220662844,195.3214332941742)"><circle class="outline" cx="0" cy="0" r="25" fill="#D9C8AE" stroke="#c0a378" stroke-width="2px"/><text text-anchor="middle" pointer-events="none" font-family="sans-serif" dy="1.5625" font-size="25" fill="#2A2C34"/><text text-anchor="middle" pointer-events="none" x="0" y="5" font-size="10px" fill="#2A2C34" font-family="sans-serif"> Aggregate</text></g><g class="node" transform="translate(-438.46738755379204,129.4326042795205)"><circle class="outline" cx="0" cy="0" r="25" fill="#F16667" stroke="#eb2728" stroke-width="2px"/><text text-anchor="middle" pointer-events="none" font-family="sans-serif" dy="1.5625" font-size="25" fill="#FFFFFF"/><text text-anchor="middle" pointer-events="none" x="0" y="5" font-size="10px" fill="#FFFFFF" font-family="sans-serif"> default.t…</text></g><g class="node" transform="translate(400.3138626184947,133.29355625680978)"><circle class="outline" cx="0" cy="0" r="25" fill="#4C8EDA" stroke="#2870c2" stroke-width="2px"/><text text-anchor="middle" pointer-events="none" font-family="sans-serif" dy="1.5625" font-size="25" fill="#FFFFFF"/><text text-anchor="middle" pointer-events="none" x="0" y="5" font-size="10px" fill="#FFFFFF" font-family="sans-serif"> testview2</text></g><g class="node" transform="translate(-144.1868105314078,85.34273277392128)"><circle class="outline" cx="0" cy="0" r="25" fill="#D9C8AE" stroke="#c0a378" stroke-width="2px"/><text text-anchor="middle" pointer-events="none" font-family="sans-serif" dy="1.5625" font-size="25" fill="#2A2C34"/><text text-anchor="middle" pointer-events="none" x="0" y="5" font-size="10px" fill="#2A2C34" font-family="sans-serif"> Filter</text></g><g class="node" transform="translate(-146.1468087718059,218.22097542341243)"><circle class="outline" cx="0" cy="0" r="25" fill="#4C8EDA" stroke="#2870c2" stroke-width="2px"/><text text-anchor="middle" pointer-events="none" font-family="sans-serif" dy="1.5625" font-size="25" fill="#FFFFFF"/><text text-anchor="middle" pointer-events="none" x="0" y="5" font-size="10px" fill="#FFFFFF" font-family="sans-serif"> testview1</text></g></g></svg>